<svg height="512" viewBox="0 0 60 56" width="512" xmlns="http://www.w3.org/2000/svg"><path id="Shape" d="m1 45h9c.265803.0015368.5212812-.1028135.71-.29l3-3c.2250429-.22567.3290412-.5450934.28-.86l-1.84-12 6.65-.85 1.25.68c-.09.3-.19-1.39 1.88 25.44.0786372 1.0455986.9514527 1.8529529 2 1.85h11.22c.9940267.0120028 1.8459871-.7079037 2-1.69l.34-2.28 1.33 2.89c.3424865.6894304 1.0502675 1.121099 1.82 1.11h10.54c.9686161.0185624 1.811263-.6597685 2-1.61l2.24-11.39h3.58c.2954177.0038102.5774004-.1232063.7703064-.3469772.192906-.223771.2769889-.5213907.2296936-.8130228l-2-12c-.09-.54 1.24.73-18.36-15.77l-2.45-12.22c-.1111022-.5525096-.4501545-1.03250253-.933747-1.32189647s-1.0668379-.36132718-1.606253-.19810353l-7.91 2.61c-.17-.07.21 0-5.93-.93-.45-.06.71-.5-14.91 6.84-.52727813.29212328-.89467629.80648071-1 1.4-3.16 20-3 18.68-2.91 19l2.22 8.36-3.58 1.46c-.38072104.1516273-.63039671.5201962-.63.93v4c0 .5522847.44771525 1 1 1zm34.15 9h-11.22l-1.86-24.19c7.36 4 7 3.92 7.69 3.92.5930048-.0044687 1.1534481-.2718698 1.53-.73l2.16-2.59 4.23 5.51c.1675885.2154245.2398422.4899885.2.76zm22.67-13h-2l1.09-5.45zm-16.93-20.67-.63-3.11 15.64 13.16-4.72 23.62h-10.54l-2.59-5.6 1.8-11.4c.1279888-.8105315-.081617-1.6381129-.58-2.29l-4.51-5.86 5.7-6.85c.3882866-.4631082.5463435-1.0769571.43-1.67zm-34-9.75 12.66-5.95-.3 4.27c-.0386599.55228473.3777153 1.03134001.93 1.06999994.5522847.03865996 1.03134-.37771521 1.07-.92999994l.34-4.89 4.5.69c.3977062.12072978.8222938.12072978 1.22 0l7.92-2.61 3.7 18.48-9.17 11-9.76-5.28 1-13.36c.0250086-.3572656-.1424814-.7007345-.4393782-.9010254s-.6780946-.2269747-1-.07-.5356132.4737598-.5606218.8310254l-.91 13.18-13.89 1.73zm-2.63 19.27 5.9-.74 1.77 11.54-2.34 2.35h-1.82zm-2.26 10.83 2.78-1.11.92 3.43h-3.7z"/></svg>